<svg width="140" height="140" viewBox="0 0 140 140" fill="none" xmlns="http://www.w3.org/2000/svg">
<path d="M59.2256 1.00388L60.6546 0.847706L64.3293 6.38025L66.5976 0.178439L68.2081 0V0.156143C67.1647 0.356921 67.0739 0.490772 67.2554 1.5839L67.7771 5.53254C67.9586 6.67028 68.004 6.80414 69.0927 6.75952V6.91567L66.3481 7.22799V7.07184C67.3235 6.89338 67.3461 6.73721 67.21 5.59946L66.6203 0.93696L64.352 7.33954L60.7227 2.07469L60.9268 5.08637C60.9268 5.59947 60.9268 5.97871 60.9268 6.29103C61.0402 7.36184 61.199 7.62956 62.2651 7.62956V7.7857L59.5431 8.07573V7.91955C60.2236 7.7857 60.4505 7.58492 60.4958 7.11644C60.5352 6.37332 60.5352 5.62869 60.4958 4.88557V2.83318C60.4958 2.54316 60.4958 2.29776 60.4958 2.09699C60.4958 1.29387 60.1783 1.18236 59.3163 1.18236L59.2256 1.00388Z" fill="black"/>
<path d="M76.2832 3.48015C76.3427 4.01783 76.2866 4.56179 76.1186 5.07678C75.9505 5.59176 75.6743 6.06626 75.3078 6.4695C74.7637 6.9213 74.081 7.18012 73.3693 7.2044C72.6576 7.22867 71.9583 7.01699 71.3836 6.60335C71.0559 6.29383 70.8085 5.91137 70.6625 5.48819C70.5164 5.065 70.4759 4.61351 70.5444 4.17171V1.3385C70.5444 0.379227 70.5444 0.267686 69.4783 0.156143V0H72.2229V0.156143C71.2702 0.156143 71.1795 0.37923 71.1568 1.27158V3.77014C71.1568 5.7333 72.0188 6.62565 73.4251 6.67027C74.8315 6.71489 75.8295 5.39867 75.8749 3.45782V2.8778C75.9371 2.20994 75.9371 1.5379 75.8749 0.870037C75.8749 0.490789 75.4666 0.312313 74.6727 0.20077V0.0445928H77.4627V0.20077C76.8276 0.20077 76.4646 0.446141 76.3966 0.80308C76.2791 1.46588 76.226 2.13818 76.2378 2.81088L76.2832 3.48015Z" fill="black"/>
<path d="M82.1356 2.43164C82.1356 1.76238 81.8861 0.87002 80.7973 0.713859C80.6313 0.68119 80.4601 0.684742 80.2957 0.724242C80.1313 0.763741 79.9777 0.838235 79.8458 0.942474C79.7138 1.04671 79.6067 1.17816 79.5321 1.32754C79.4574 1.47691 79.417 1.64058 79.4136 1.807C79.4136 2.74396 79.9353 3.19014 80.6158 3.65862C81.2963 4.1271 82.4078 4.59558 82.2263 5.88949C82.187 6.1745 82.0872 6.4482 81.9334 6.69284C81.7796 6.93748 81.5752 7.14758 81.3336 7.30955C81.0919 7.47151 80.8183 7.58172 80.5305 7.633C80.2428 7.68428 79.9472 7.6755 79.6631 7.60723C79.2755 7.54031 78.8956 7.43569 78.529 7.29491L78.0753 7.02722C78.0359 6.43295 78.0359 5.83678 78.0753 5.24252H78.2568C78.3702 5.86716 78.6878 7.16107 80.0034 7.33954C80.1955 7.3795 80.3943 7.37667 80.5851 7.33123C80.776 7.2858 80.954 7.19892 81.1063 7.07698C81.2586 6.95504 81.3811 6.80113 81.465 6.62653C81.5489 6.45193 81.5921 6.26104 81.5912 6.06793C81.7273 4.95249 80.8426 4.46172 80.2982 4.06016C80.2982 4.06016 78.6197 3.25705 78.8012 1.82929C78.8418 1.57912 78.9336 1.33967 79.071 1.12537C79.2084 0.911079 79.3886 0.726378 79.6006 0.582498C79.8126 0.438617 80.0521 0.338531 80.3046 0.288253C80.5571 0.237976 80.8173 0.238561 81.0695 0.289989C81.5196 0.354793 81.9561 0.490394 82.3624 0.691563C82.3624 1.07081 82.3624 1.49467 82.3624 2.25316L82.1356 2.43164Z" fill="black"/>
<path d="M82.5211 7.71864C83.5645 7.87481 83.7006 7.71863 83.882 6.8709L84.7894 2.58764C84.9935 1.65068 84.9482 1.4276 84.0408 1.20452V1.04834L88.8723 2.05226C88.8723 2.4315 88.7136 3.10075 88.6228 3.7477H88.464C88.464 2.58765 88.328 2.20839 86.9897 1.91838L85.9462 1.71761C85.6513 1.71761 85.6287 1.71762 85.5606 1.94071L85.0162 4.50619L86.3092 4.77392C87.1938 4.95239 87.4206 4.7739 87.7609 4.19387H87.9423L87.5114 6.22397H87.3072C87.3072 5.35393 87.1031 5.26471 86.2411 5.08624L84.9482 4.81851L84.4945 7.04938C84.2677 8.07558 84.7213 8.18715 85.6513 8.36562C85.9344 8.4853 86.2392 8.54702 86.5473 8.54702C86.8554 8.54702 87.1603 8.4853 87.4433 8.36562C87.7843 8.1055 88.0761 7.7883 88.3052 7.42862H88.464L87.6928 9.10177L82.4757 8.03096L82.5211 7.71864Z" fill="black"/>
<path d="M96.2897 9.8602C96.1082 10.1948 95.5639 10.931 95.337 11.3772L90.6643 9.77095V9.6371C91.5943 9.90481 91.7304 9.74863 92.048 8.85629L93.4997 4.7292C93.7946 3.90378 93.7946 3.70299 92.8419 3.32375V3.1676L95.4958 4.08223V4.23841C94.5204 3.9484 94.3617 4.10456 94.0668 4.90768L92.6377 8.90091C92.2521 10.0163 92.5016 10.1502 93.5904 10.5071C94.0688 10.7156 94.6057 10.755 95.1102 10.6187C95.4617 10.3925 95.7755 10.1141 96.0402 9.79328L96.2897 9.8602Z" fill="black"/>
<path d="M96.0629 11.5334C96.9929 11.868 97.1517 11.7342 97.5146 10.9311L99.3065 6.84858C99.6468 6.04547 99.6468 5.8447 98.7621 5.39853V5.26465L101.28 6.33549V6.46934C100.373 6.15701 100.191 6.29088 99.8509 7.07168L98.059 11.1542C97.696 11.9573 97.7187 12.1804 98.6034 12.6042V12.7381L96.0855 11.6673L96.0629 11.5334Z" fill="black"/>
<path d="M99.1023 12.7158C99.7147 12.9835 100.1 12.9389 100.327 12.7158C100.763 12.1707 101.136 11.5796 101.439 10.9534L102.618 8.72255C103.095 7.85251 103.026 7.87484 102.958 7.56252C102.89 7.2502 102.754 7.07172 102.255 6.71478V6.58093L103.48 7.2502L105.249 14.8798L106.792 12.0912C107.835 10.1726 107.971 9.86029 106.792 9.21334V9.07949L109.264 10.3957V10.5295C108.652 10.2841 108.289 10.3288 108.062 10.5295C107.634 11.0392 107.276 11.6017 106.996 12.2027L104.886 16.0175L103.117 8.43256L101.688 11.0203C101.335 11.6123 101.032 12.2316 100.781 12.872C100.781 13.2289 100.894 13.5635 101.552 13.9651V14.1212L99.0796 12.7827L99.1023 12.7158Z" fill="black"/>
<path d="M106.361 16.6645C107.155 17.1776 107.359 17.0438 107.926 16.263L110.421 12.8051C110.966 12.0466 111.011 11.8236 110.217 11.1989V11.0651L112.486 12.649V12.7828C111.646 12.2697 111.442 12.3813 110.898 13.1621L109.764 14.7237C110.029 14.833 110.316 14.8789 110.603 14.8575C111.739 14.7979 112.857 14.5568 113.915 14.1437C113.915 14.0098 113.915 13.876 113.461 13.4521L115.729 15.0137V15.1476C115.141 14.8315 114.464 14.714 113.801 14.8129C113.347 14.8129 111.873 15.036 110.648 15.2368C110.807 16.5084 111.125 18.65 111.261 19.1631C111.465 20.0778 111.533 20.3009 111.964 20.7024L110.83 19.9216C110.557 18.3154 110.353 17.2 110.172 15.4599C110.169 15.3509 110.141 15.2441 110.09 15.1474C110.039 15.0507 109.966 14.9668 109.877 14.9022H109.718L108.493 16.5976C107.949 17.4007 107.881 17.6238 108.697 18.2485V18.36L106.429 16.7984L106.361 16.6645Z" fill="black"/>
<path d="M112.69 20.97C112.774 20.8664 112.896 20.8001 113.03 20.7854C113.097 20.7782 113.164 20.7838 113.228 20.8021C113.292 20.8204 113.352 20.8509 113.404 20.8919C113.456 20.9329 113.5 20.9836 113.532 21.0411C113.564 21.0986 113.584 21.1618 113.592 21.2271C113.599 21.2923 113.593 21.3584 113.575 21.4215C113.556 21.4845 113.525 21.5433 113.484 21.5946C113.399 21.6982 113.277 21.7645 113.143 21.7792C113.009 21.7938 112.874 21.7555 112.769 21.6727C112.664 21.5899 112.596 21.4693 112.581 21.3375C112.566 21.2057 112.605 21.0735 112.69 20.97V20.97Z" fill="black"/>
<path d="M120.674 25.9448C120.103 26.2896 119.512 26.6025 118.905 26.8818C118.243 26.4944 117.62 26.0463 117.045 25.5433C116.624 25.2356 116.274 24.8445 116.017 24.3953C115.76 23.9461 115.602 23.4488 115.553 22.9357C115.504 22.4226 115.565 21.905 115.732 21.4165C115.899 20.928 116.169 20.4795 116.523 20.0999C116.923 19.7252 117.398 19.4357 117.917 19.2495C118.436 19.0633 118.988 18.9845 119.54 19.018C120.091 19.0515 120.63 19.1966 121.121 19.4442C121.613 19.6918 122.048 20.0365 122.398 20.4569C122.906 20.9587 123.347 21.5208 123.714 22.13C123.396 22.5985 123.056 23.0224 122.648 23.5355L122.489 23.424C122.817 22.942 122.941 22.3533 122.835 21.7828C122.729 21.2122 122.402 20.7046 121.922 20.3676C121.637 20.0533 121.287 19.8017 120.896 19.6294C120.505 19.4572 120.082 19.3681 119.653 19.3681C119.225 19.3681 118.801 19.4572 118.411 19.6294C118.02 19.8017 117.67 20.0533 117.385 20.3676C117.025 20.6595 116.733 21.0238 116.528 21.4361C116.323 21.8484 116.21 22.299 116.198 22.7577C116.185 23.2164 116.272 23.6725 116.453 24.0952C116.635 24.518 116.906 24.8976 117.249 25.2086C117.686 25.6422 118.255 25.9228 118.87 26.0074C119.484 26.092 120.11 25.976 120.651 25.6771L120.674 25.9448Z" fill="black"/>
<path d="M125.596 31.7898C124.993 32.0815 124.372 32.3349 123.736 32.5482C123.13 32.079 122.561 31.5643 122.035 31.0089C121.646 30.6638 121.335 30.2422 121.122 29.7715C120.91 29.3007 120.8 28.7913 120.8 28.2761C120.8 27.7609 120.91 27.2515 121.122 26.7808C121.335 26.31 121.646 25.8885 122.035 25.5433C122.476 25.2204 122.98 24.9895 123.515 24.8648C124.05 24.7402 124.606 24.7244 125.147 24.8184C125.689 24.9124 126.205 25.1142 126.665 25.4115C127.124 25.7088 127.517 26.0952 127.819 26.5472C128.274 27.1079 128.655 27.7224 128.953 28.3765C128.568 28.8004 128.182 29.1796 127.728 29.6481L127.57 29.5143C127.945 29.0741 128.134 28.5082 128.096 27.9347C128.058 27.3611 127.796 26.8241 127.366 26.4357C127.119 26.0851 126.797 25.7915 126.424 25.5751C126.05 25.3587 125.633 25.2246 125.202 25.1822C124.771 25.1397 124.335 25.19 123.925 25.3293C123.516 25.4687 123.141 25.694 122.829 25.9895C122.44 26.2409 122.109 26.5709 121.859 26.9575C121.609 27.344 121.445 27.7784 121.379 28.2319C121.312 28.6853 121.344 29.1475 121.473 29.5878C121.602 30.0281 121.824 30.4364 122.126 30.7858C122.509 31.2618 123.041 31.6006 123.64 31.7497C124.238 31.8989 124.87 31.8503 125.438 31.6113L125.596 31.7898Z" fill="black"/>
<path d="M140 92.3577L139.456 93.6739L132.764 94.2316L137.301 99.1618L136.688 100.657H136.53C136.824 99.6526 136.779 99.5188 135.69 99.1618L131.925 97.7787C130.813 97.3771 130.655 97.3548 130.178 98.3141H130.042L131.063 95.7709H131.222C130.927 96.7079 131.04 96.7971 132.152 97.1987L136.688 98.8941L132.038 93.8301L138.48 93.3839L135.69 92.1346C135.214 91.9115 134.851 91.7777 134.556 91.6661C133.558 91.2646 133.218 91.2646 132.742 92.1792H132.605L133.603 89.6583H133.762C133.535 90.3276 133.626 90.6176 134.034 90.863C134.659 91.2368 135.303 91.5793 135.963 91.8892L137.845 92.7816L138.548 93.0715C139.297 93.3616 139.501 93.25 139.909 92.4915L140 92.3577Z" fill="black"/>
<path d="M129.77 105.921C129.253 105.729 128.783 105.43 128.392 105.046C128.001 104.661 127.698 104.199 127.502 103.69C127.399 103.317 127.375 102.926 127.429 102.543C127.484 102.16 127.617 101.791 127.819 101.46C128.158 100.901 128.677 100.469 129.294 100.233C129.729 100.101 130.189 100.07 130.638 100.144C131.087 100.217 131.512 100.393 131.88 100.656L134.375 102.04C135.214 102.53 135.373 102.508 135.94 101.683H136.076L134.738 104.025H134.602C135.055 103.177 134.874 102.999 134.08 102.553L131.812 101.348C130.065 100.366 128.84 100.723 128.092 102.04C127.343 103.356 128.092 104.694 129.793 105.654L130.314 105.944C130.893 106.31 131.509 106.617 132.152 106.858C132.492 106.858 132.832 106.858 133.286 106.122H133.445L132.061 108.487H131.925C132.174 107.929 132.174 107.505 131.925 107.282C131.383 106.87 130.807 106.504 130.201 106.189L129.77 105.921Z" fill="black"/>
<path d="M127.91 111.566C128.545 111.789 129.43 112.079 130.178 111.186C130.286 111.06 130.365 110.912 130.408 110.753C130.451 110.594 130.457 110.427 130.427 110.265C130.396 110.103 130.33 109.949 130.232 109.815C130.134 109.682 130.007 109.571 129.861 109.491C129.089 108.933 128.386 109.29 127.592 109.669C126.798 110.049 125.914 110.763 124.757 109.959C124.52 109.788 124.322 109.569 124.177 109.318C124.031 109.067 123.94 108.788 123.91 108.5C123.88 108.213 123.912 107.922 124.003 107.647C124.094 107.372 124.243 107.118 124.439 106.903C124.669 106.604 124.935 106.334 125.233 106.1C125.375 105.984 125.536 105.893 125.71 105.832C126.266 106.06 126.805 106.328 127.32 106.635V106.769C126.873 106.555 126.366 106.491 125.878 106.588C125.391 106.685 124.949 106.937 124.621 107.305C124.493 107.45 124.4 107.622 124.349 107.808C124.298 107.994 124.291 108.189 124.329 108.378C124.366 108.567 124.446 108.746 124.563 108.9C124.681 109.054 124.832 109.18 125.006 109.268C125.936 109.915 126.798 109.268 127.433 109.112C127.433 109.112 128.931 108.019 130.065 108.799C130.273 108.957 130.446 109.156 130.573 109.383C130.7 109.61 130.777 109.86 130.801 110.118C130.824 110.375 130.793 110.635 130.709 110.881C130.626 111.126 130.491 111.352 130.314 111.543C130.051 111.905 129.729 112.222 129.362 112.48L127.978 111.722L127.91 111.566Z" fill="black"/>
<path d="M122.988 109.402C122.33 110.227 122.421 110.428 123.101 110.963L126.481 113.797C127.23 114.421 127.434 114.488 128.092 113.797H128.205L125.007 117.5C124.564 117.134 124.102 116.792 123.623 116.474V116.295C124.666 116.853 125.075 116.92 125.891 115.871L126.572 115.09C126.776 114.845 126.776 114.823 126.572 114.644L124.53 112.949L123.668 113.953C123.101 114.622 123.056 114.845 123.51 115.47V115.603L121.899 114.265L122.012 114.131C122.806 114.533 122.988 114.399 123.555 113.752L124.417 112.748L122.716 111.343C121.899 110.673 121.604 111.008 120.992 111.722C120.379 112.436 120.107 112.748 120.198 113.306C120.277 113.723 120.431 114.123 120.652 114.488L120.515 114.622L119.404 113.172L122.829 109.179L122.988 109.402Z" fill="black"/>
<path d="M114.572 120.31C114.368 119.998 113.96 119.173 113.665 118.771L117.294 115.469V115.603C116.614 116.273 116.682 116.451 117.294 117.143L120.311 120.377C120.901 121.024 121.105 121.091 121.876 120.377V120.489L119.789 122.363V122.251C120.515 121.515 120.447 121.314 119.789 120.667L116.863 117.567C116.047 116.696 115.82 116.853 114.981 117.567C114.556 117.875 114.265 118.329 114.164 118.838C114.201 119.245 114.3 119.643 114.459 120.02L114.572 120.31Z" fill="black"/>
<path d="M113.166 119.351C112.417 119.998 112.463 120.199 113.03 120.891L115.865 124.348C116.41 125.04 116.614 125.129 117.408 124.572V124.683L115.275 126.379V126.245C116.001 125.598 115.956 125.397 115.389 124.705L112.576 121.248C112.009 120.556 111.805 120.467 111.034 121.047V120.913L113.189 119.217L113.166 119.351Z" fill="black"/>
<path d="M110.716 121.404C110.172 121.805 110.036 122.162 110.149 122.475C110.432 123.104 110.781 123.702 111.192 124.259L112.553 126.289C113.121 127.115 113.143 127.025 113.438 127.115C113.624 127.161 113.817 127.167 114.005 127.133C114.193 127.098 114.371 127.023 114.527 126.914L113.37 127.672L105.703 125.62L107.495 128.275C108.72 130.082 108.902 130.305 110.058 129.658V129.792L107.79 131.331V131.197C108.312 130.796 108.425 130.461 108.334 130.126C108.051 129.53 107.709 128.962 107.314 128.431L104.887 124.817L112.531 126.847L110.875 124.371C110.506 123.788 110.089 123.235 109.627 122.72C109.355 122.475 108.947 122.497 108.289 122.854L110.557 121.314L110.716 121.404Z" fill="black"/>
<path d="M103.707 125.888C102.891 126.334 102.891 126.58 103.344 127.427L105.272 131.22C105.703 132.067 105.885 132.224 106.815 131.822V131.956L104.32 133.183V133.049C105.182 132.558 105.159 132.335 104.728 131.487L103.843 129.77C103.62 129.951 103.441 130.18 103.322 130.439C102.837 131.452 102.53 132.538 102.414 133.651C102.414 133.808 102.664 133.651 103.231 133.651V133.785L100.758 135.012V134.878C101.322 134.521 101.745 133.986 101.961 133.361C102.142 132.937 102.664 131.599 103.072 130.417C101.847 129.948 99.7603 129.234 99.2613 129.1C98.3312 128.855 98.1044 128.788 97.5374 129.1V128.967L98.7849 128.342C100.35 128.877 101.439 129.212 103.027 129.837C103.126 129.881 103.235 129.904 103.344 129.904C103.454 129.904 103.562 129.881 103.662 129.837H103.821L102.868 127.985C102.414 127.115 102.233 126.959 101.303 127.383V127.226L103.775 126.022L103.707 125.888Z" fill="black"/>
<path d="M96.9248 129.234C96.9543 129.295 96.9708 129.362 96.9729 129.429C96.9751 129.497 96.9631 129.564 96.9375 129.627C96.9119 129.69 96.8734 129.747 96.8244 129.795C96.7754 129.842 96.7169 129.879 96.6526 129.903C96.5906 129.932 96.5231 129.947 96.4547 129.947C96.3863 129.948 96.3186 129.934 96.2562 129.906C96.1938 129.879 96.1382 129.838 96.093 129.788C96.0479 129.737 96.0144 129.678 95.9948 129.613C95.9654 129.554 95.9492 129.489 95.9472 129.423C95.9452 129.357 95.9575 129.291 95.9832 129.23C96.0089 129.169 96.0475 129.114 96.0964 129.068C96.1453 129.023 96.2035 128.988 96.267 128.966C96.328 128.941 96.3935 128.928 96.4598 128.927C96.526 128.927 96.5917 128.94 96.653 128.965C96.7142 128.989 96.7698 129.026 96.8164 129.072C96.8631 129.119 96.8999 129.174 96.9248 129.234V129.234Z" fill="black"/>
<path d="M88.7135 133.919C88.7135 133.317 88.7135 132.357 88.7135 131.956C89.3708 131.563 90.0614 131.227 90.7777 130.952C91.2538 130.732 91.7713 130.613 92.297 130.602C92.8227 130.591 93.345 130.689 93.83 130.889C94.3151 131.088 94.7523 131.386 95.1134 131.762C95.4745 132.138 95.7516 132.584 95.9267 133.071C96.0747 133.595 96.1112 134.143 96.0339 134.681C95.9567 135.219 95.7674 135.735 95.4778 136.198C95.1882 136.661 94.8047 137.06 94.3511 137.37C93.8975 137.681 93.3837 137.895 92.8418 138.001C92.1491 138.208 91.4328 138.328 90.7096 138.358L89.9611 136.775H90.1425C90.4221 137.281 90.8899 137.661 91.448 137.835C92.006 138.01 92.6112 137.966 93.1367 137.711C93.5645 137.617 93.9662 137.432 94.3138 137.169C94.6615 136.906 94.9467 136.572 95.1497 136.19C95.3526 135.808 95.4685 135.387 95.489 134.956C95.5096 134.525 95.4345 134.095 95.2689 133.696C95.1756 133.246 94.9852 132.821 94.7107 132.45C94.4363 132.078 94.084 131.769 93.6777 131.543C93.2715 131.317 92.8206 131.179 92.3556 131.138C91.8905 131.098 91.4221 131.156 90.9818 131.309C90.3876 131.481 89.8676 131.84 89.5026 132.333C89.1376 132.825 88.9479 133.422 88.963 134.031L88.7135 133.919Z" fill="black"/>
<path d="M81.1603 135.413C81.1603 134.811 81.2737 133.852 81.3644 133.45C82.0986 133.144 82.8573 132.898 83.6327 132.714C84.1282 132.548 84.6537 132.487 85.1749 132.535C85.696 132.582 86.2011 132.737 86.6571 132.99C87.1131 133.243 87.5098 133.587 87.8212 134.001C88.1326 134.415 88.3517 134.888 88.4642 135.391C88.5402 135.921 88.5053 136.461 88.3616 136.977C88.2179 137.493 87.9684 137.974 87.6285 138.392C87.2887 138.81 86.8655 139.155 86.3852 139.406C85.9048 139.658 85.3772 139.809 84.8349 139.853C84.0884 139.999 83.3242 140.037 82.5666 139.964C82.3625 139.429 82.2037 138.916 82.0222 138.314H82.2037C82.4218 138.847 82.8407 139.277 83.3732 139.514C83.9057 139.75 84.5106 139.776 85.0618 139.585C85.4965 139.533 85.9148 139.39 86.288 139.165C86.6611 138.939 86.9803 138.637 87.2237 138.279C87.4671 137.921 87.629 137.515 87.6982 137.09C87.7675 136.665 87.7425 136.23 87.625 135.815C87.5845 135.359 87.4453 134.916 87.2167 134.517C86.988 134.118 86.6752 133.771 86.2993 133.501C85.9233 133.231 85.4929 133.042 85.0369 132.949C84.5809 132.856 84.1099 132.859 83.6554 132.959C83.0534 133.07 82.5051 133.373 82.0952 133.82C81.6853 134.268 81.4364 134.835 81.3871 135.436L81.1603 135.413Z" fill="black"/>
<path d="M12.2941 109.937L11.5683 108.732L15.2203 103.2L8.41535 103.646L7.57605 102.263H7.71214C8.34727 103.088 8.48339 103.133 9.43608 102.53L12.8612 100.456C13.8593 99.8311 13.95 99.7196 13.4963 98.7826H13.6324L15.0388 101.147H14.9027C14.3356 100.344 14.1995 100.389 13.1788 100.991L9.09581 103.4L15.9007 102.91L12.2941 108.175L14.9934 106.791L16.0822 106.211C17.0122 105.676 17.2164 105.408 16.7627 104.471H16.8988L18.2825 106.702H18.1464C17.7608 106.144 17.4659 106.033 17.0349 106.167C16.344 106.423 15.6697 106.721 15.0161 107.059L13.1561 107.951L12.4756 108.308C11.7951 108.71 11.7724 108.955 12.1127 109.736L12.2941 109.937Z" fill="black"/>
<path d="M7.62172 93.5401C8.09943 93.2736 8.62688 93.1046 9.17253 93.0433C9.71819 92.982 10.2708 93.0295 10.7973 93.1831C11.4407 93.4881 11.9609 93.9974 12.2737 94.6289C12.5865 95.2603 12.6737 95.9771 12.5213 96.6633C12.3171 97.3772 11.7727 97.9349 10.5932 98.4257L7.93928 99.4965C7.03196 99.8758 6.96393 99.9873 7.28149 100.947H7.12269L6.07925 98.448H6.21538C6.62368 99.318 6.87317 99.2957 7.71244 98.9388L9.98075 97.9795C11.8408 97.2433 12.2491 96.061 11.7047 94.6778C11.1603 93.2947 9.57248 93.027 7.73515 93.7632L7.16807 93.9863C6.52607 94.2116 5.91019 94.5032 5.33074 94.8563C5.01318 95.0571 4.96781 95.4586 5.33074 96.1948H5.17194L4.10583 93.6516H4.24193C4.55949 94.1871 4.87706 94.4547 5.23999 94.3655C5.89883 94.1903 6.54335 93.9666 7.16807 93.6963L7.62172 93.5401Z" fill="black"/>
<path d="M4.28726 88.7662C3.72018 89.1455 2.92626 89.6586 3.24382 90.6848C3.28081 90.846 3.35308 90.9973 3.45554 91.1282C3.55801 91.2592 3.68822 91.3666 3.83717 91.443C3.98612 91.5195 4.15024 91.5631 4.31806 91.5708C4.48589 91.5786 4.65338 91.5503 4.80896 91.4879C5.73897 91.2202 5.89777 90.4617 6.03387 89.6586C6.16997 88.8555 6.19265 87.6731 7.55363 87.2716C7.83568 87.1922 8.13157 87.1722 8.422 87.2129C8.71244 87.2536 8.99086 87.3541 9.23915 87.5077C9.48744 87.6614 9.7 87.8648 9.86296 88.1047C10.0259 88.3446 10.1356 88.6157 10.1849 88.9001C10.2953 89.2618 10.3489 89.6379 10.3436 90.0155C10.3691 90.1931 10.3691 90.3733 10.3436 90.5509C9.81327 90.832 9.26811 91.0852 8.71046 91.3094V91.1309C9.15791 90.919 9.5223 90.5686 9.74767 90.1333C9.97304 89.6981 10.0469 89.2021 9.95804 88.7216C9.91807 88.5309 9.83487 88.3516 9.71465 88.197C9.59442 88.0423 9.44029 87.9164 9.26369 87.8285C9.08709 87.7405 8.89257 87.693 8.69468 87.6892C8.49678 87.6855 8.3006 87.7257 8.12071 87.8069C7.03192 88.1193 6.9412 89.1232 6.78242 89.7701C6.78242 89.8817 6.78241 91.5994 5.39874 92.001C4.89959 92.0999 4.38093 92.0006 3.95596 91.7247C3.53099 91.4489 3.23423 91.0189 3.13043 90.5286C3.0029 90.1017 2.94921 89.6568 2.97164 89.2124L4.44606 88.5878L4.28726 88.7662Z" fill="black"/>
<path d="M9.07334 86.2675C8.80115 85.2636 8.59701 85.219 7.73505 85.3975L3.3799 86.2898C2.42721 86.4906 2.24572 86.6021 2.40451 87.5391H2.26841L1.24768 82.7873L2.92621 82.3412V82.5196C1.83742 82.9881 1.54256 83.2558 1.81476 84.572L2.04157 85.5982C2.04157 85.8883 2.0416 85.9106 2.42721 85.8436L5.01308 85.3082L4.74086 84.0366C4.5594 83.1666 4.40064 82.9881 3.62941 82.9658V82.7873L5.69355 82.3635V82.542C4.87696 82.8989 4.87696 83.1443 5.05842 83.9697L5.33065 85.2413L7.48553 84.7951C8.55164 84.5943 8.43822 84.1482 8.25675 83.2335C8.07529 82.3189 7.96188 81.9173 7.48553 81.6496C7.10012 81.4413 6.67565 81.3123 6.23796 81.2703V81.0696H8.09799L9.18677 86.1783L9.07334 86.2675Z" fill="black"/>
<path d="M5.48934 73.0387C5.87495 73.0387 6.78229 73.2618 7.28132 73.3064L7.66693 78.1474H7.50813C7.39472 77.2104 7.19057 77.1435 6.23788 77.2327L1.70126 77.5674C0.816622 77.5674 0.635142 77.7458 0.657825 78.7274H0.499062L0.272217 75.9611H0.431015C0.567114 76.9873 0.771246 77.0543 1.65589 76.9873L5.94299 76.6527C7.1452 76.6527 7.16788 76.2958 7.07715 75.158C7.07818 74.6368 6.89361 74.1316 6.55545 73.7303C6.202 73.5164 5.82039 73.3513 5.42129 73.2395L5.48934 73.0387Z" fill="black"/>
<path d="M7.12263 72.5477C7.12263 71.5661 6.87313 71.4769 5.9658 71.4992H1.42918C0.544543 71.4992 0.363065 71.4992 0.317699 72.57H0.158936V69.8707H0.317699C0.317699 70.83 0.589884 70.9415 1.47452 70.9192H6.01115C6.91847 70.9192 7.09995 70.8077 7.12263 69.8484H7.28143V72.5477H7.12263Z" fill="black"/>
<path d="M6.9864 69.3576C6.9864 68.7106 6.80493 68.376 6.48737 68.2644C5.79628 68.0963 5.0893 67.9991 4.37782 67.9744L1.92808 67.796C0.930021 67.796 0.975368 67.796 0.703171 67.9521C0.418102 68.2066 0.240098 68.5567 0.20414 68.9337H0V67.5506L6.37395 62.8657L3.15295 62.6203C0.88464 62.4419 0.657803 62.4419 0.453655 63.7358H0.294891L0.521702 60.9918H0.6805C0.6805 61.6388 0.884638 61.9288 1.2022 62.0626C1.84716 62.2272 2.50945 62.317 3.17562 62.3303L7.59885 62.665V62.7765L1.27025 67.4613L4.2871 67.6844C4.98143 67.7434 5.67962 67.7434 6.37395 67.6844C6.71419 67.6844 6.9637 67.2828 7.07712 66.5467H7.23591L7.00907 69.3129L6.9864 69.3576Z" fill="black"/>
<path d="M7.71224 61.1926C7.84834 60.2779 7.71226 60.144 6.66884 59.9656L2.47245 59.1402C1.51976 58.9394 1.29296 58.984 1.04344 59.9656H0.884644L1.42905 57.2662H1.58781C1.45172 58.2255 1.58782 58.3593 2.58588 58.5378L4.51395 58.9171C4.50472 58.6354 4.42693 58.36 4.28711 58.1139C3.76702 57.1127 3.08524 56.2011 2.26831 55.4146C2.10953 55.4146 2.04149 55.5708 1.81466 56.1062H1.65586L2.26831 53.3845C2.21528 54.0435 2.38256 54.7015 2.74467 55.2584C2.97151 55.66 3.72003 56.887 4.4232 57.9132C5.53467 57.2662 7.39469 56.0839 7.82567 55.6823C8.25665 55.2808 8.77836 54.9685 8.95982 54.4107H9.11862L8.8464 55.7492C7.46273 56.6416 6.57811 57.2662 5.03566 58.1363C4.80882 58.2701 4.67273 58.404 4.65005 58.6047C4.63717 58.6636 4.63717 58.7244 4.65005 58.7832L6.73689 59.1848C7.68958 59.3633 7.91642 59.3409 8.16593 58.3593H8.3247L7.78029 61.0141L7.71224 61.1926Z" fill="black"/>
<path d="M9.07322 53.7636C9.00887 53.748 8.94834 53.7199 8.89514 53.681C8.84193 53.6422 8.79712 53.5933 8.76334 53.5372C8.72955 53.4812 8.70745 53.4191 8.69834 53.3545C8.68923 53.2899 8.69329 53.2242 8.71028 53.1612C8.73271 53.0606 8.78543 52.969 8.86153 52.8983C8.93764 52.8275 9.03362 52.7809 9.13701 52.7646C9.2404 52.7482 9.34642 52.7628 9.44124 52.8065C9.53607 52.8502 9.61532 52.921 9.66871 53.0096C9.7221 53.0982 9.74713 53.2005 9.74056 53.3033C9.734 53.4061 9.69616 53.5046 9.63192 53.5859C9.56768 53.6672 9.48004 53.7277 9.3804 53.7594C9.28075 53.7911 9.17371 53.7925 9.07322 53.7636V53.7636Z" fill="black"/>
<path d="M10.5022 44.5726C11.0643 44.9323 11.6022 45.3273 12.1127 45.755C12.0113 46.5112 11.8443 47.2576 11.6136 47.9858C11.501 48.4914 11.2813 48.9679 10.9687 49.3842C10.6562 49.8006 10.2579 50.1475 9.79981 50.4022C9.34174 50.6569 8.83417 50.8138 8.31029 50.8625C7.78641 50.9113 7.25797 50.8508 6.75945 50.6852C6.24962 50.4742 5.78933 50.1624 5.4071 49.7692C5.02487 49.376 4.72883 48.9097 4.53741 48.3993C4.346 47.8889 4.26328 47.3453 4.29434 46.8021C4.32539 46.259 4.46958 45.7279 4.71798 45.2419C4.97468 44.5766 5.31776 43.9467 5.73872 43.3679L7.46262 43.7695V43.9703C6.12432 43.8141 5.37579 44.3495 4.85408 45.7103C4.67061 46.1037 4.57617 46.5316 4.57729 46.9643C4.5784 47.3971 4.67506 47.8244 4.86055 48.2169C5.04604 48.6093 5.31594 48.9575 5.65163 49.2373C5.98732 49.5171 6.38079 49.7218 6.80482 49.8375C7.22257 50.0358 7.67826 50.1449 8.14194 50.1578C8.60562 50.1706 9.06682 50.0868 9.49526 49.912C9.92369 49.7371 10.3097 49.4751 10.6279 49.1431C10.946 48.8112 11.1892 48.4168 11.3414 47.9858C11.5668 47.4187 11.5955 46.7943 11.4233 46.2094C11.251 45.6246 10.8874 45.112 10.3888 44.7511L10.5022 44.5726Z" fill="black"/>
<path d="M13.9727 37.7684C14.4755 38.1943 14.9527 38.6487 15.4017 39.1292C15.2218 39.8937 14.9712 40.6404 14.6532 41.3601C14.4836 41.8491 14.2106 42.2972 13.8522 42.675C13.4938 43.0528 13.0582 43.3516 12.5739 43.5518C12.0896 43.752 11.5677 43.8491 11.0425 43.8366C10.5173 43.8242 10.0007 43.7024 9.52681 43.4794C9.04368 43.2157 8.62112 42.8567 8.28554 42.425C7.94996 41.9932 7.7086 41.498 7.57659 40.9703C7.44457 40.4426 7.42475 39.8938 7.51833 39.3582C7.61192 38.8226 7.81691 38.3117 8.12047 37.8576C8.45029 37.2223 8.87036 36.6364 9.36805 36.1176C9.91244 36.2737 10.4341 36.4745 11.0466 36.6976V36.8984C10.4841 36.7355 9.87929 36.7933 9.35912 37.0594C8.83895 37.3256 8.4438 37.7796 8.25657 38.3261C8.027 38.6944 7.88198 39.1076 7.83164 39.5367C7.78129 39.9659 7.82685 40.4007 7.9651 40.8107C8.10335 41.2207 8.33097 41.5961 8.63207 41.9107C8.93316 42.2252 9.30045 42.4713 9.70828 42.6317C10.0976 42.8837 10.5371 43.0508 10.9975 43.1219C11.4579 43.193 11.9284 43.1663 12.3775 43.0438C12.8266 42.9212 13.2437 42.7055 13.601 42.4113C13.9583 42.1171 14.2475 41.751 14.449 41.3378C14.7457 40.7973 14.851 40.175 14.7483 39.5691C14.6456 38.9632 14.3408 38.4082 13.882 37.9915L13.9727 37.7684Z" fill="black"/>
</svg>
